# xmcd
#
# Track frame offsets: 
#        150
#        24814
#        46519
#        70993
#        83921
#        105287
#        129148
#        147552
#        167298
#        187792
#        204470
#        217939
#
# Disc length: 3184 seconds
#
# Revision: 0
# Processed by: cddbd v1.5.2PL0 Copyright (c) Steve Scherf et al.
# Submitted via: ExactAudioCopy v0.99pb5
#
DISCID=8a0c6e0c
DTITLE=Ronnie Shellist - 'til Then
DYEAR=2012
DGENRE=Blues
TTITLE0=Knockin
TTITLE1=One Day
TTITLE2=Bad News
TTITLE3=Found You
TTITLE4=Trust Is Gone
TTITLE5=Mook
TTITLE6=Three Days
TTITLE7=Evil Woman
TTITLE8=Last Night
TTITLE9='til Then
TTITLE10=Shoes
TTITLE11=Eyesight To The Blind
EXTD=
EXTT0=
EXTT1=
EXTT2=
EXTT3=
EXTT4=
EXTT5=
EXTT6=
EXTT7=
EXTT8=
EXTT9=
EXTT10=
EXTT11=
PLAYORDER=
